:version 1.10
:name ASF
:units
  mass 1
  length 1
  angle deg
:documentation
  ASF file generated by Kaydara
:root
  axis xyz
  order  tx ty tz rx ry rz
  position 0 0 0
  orientation 0 0 0
:bonedata
  begin
    id 1
    name abdomenDummy
    direction 1 -1.27917e-005 -1.26829e-007
    length 1.79048
    axis 0 0 0 xyz
  end
  begin
    id 2
    name abdomen
    direction 0.987238 0.159249 -9.68575e-008
    length 8.61378
    axis 2.73208e-005 5.54953e-006 9.16328 xyz
    dof rx ry rz
  end
  begin
    id 3
    name chest
    direction 0 0 0
    length 0
    axis 2.65071e-005 8.63688e-006 2.59796 xyz
    dof rx ry rz
  end
  begin
    id 4
    name neckDummyDummy
    direction 0.998972 0.0453274 -1.50742e-007
    length 9.56202
    axis 2.65071e-005 8.63688e-006 2.59796 xyz
  end
  begin
    id 5
    name neckDummy
    direction 0.99977 0.0214525 -1.61748e-007
    length 1.93574
    axis 2.62932e-005 9.26758e-006 1.22924 xyz
    dof rx ry rz
  end
  begin
    id 6
    name neck
    direction 0.99928 -0.0379406 -1.88707e-007
    length 3.70367
    axis 2.56966e-005 1.08122e-005 -2.17436 xyz
    dof rx ry rz
  end
  begin
    id 7
    name head
    direction 0.992648 -0.121037 -2.25408e-007
    length 6.35158
    axis 2.47068e-005 1.29149e-005 -6.95196 xyz
    dof rx ry rz
  end
  begin
    id 8
    name figureHair
    direction -0.86681 -0.498639 -7.83376e-008
    length 8.29884
    axis -2.7515e-005 4.48842e-006 -150.09 xyz
    dof rx ry rz
  end
  begin
    id 9
    name lCollarDummy
    direction 0.994611 0.0451299 -0.0933417
    length 9.60395
    axis 2.65071e-005 8.63688e-006 2.59796 xyz
  end
  begin
    id 10
    name lCollar
    direction 0.0384146 0.00127577 -0.999261
    length 6.95318
    axis 90.4899 87.7973 1.90202 xyz
    dof rx ry rz
  end
  begin
    id 11
    name lShldr
    direction -0.030648 0.0920515 -0.995282
    length 9.61158
    axis -161.793 84.4324 108.415 xyz
    dof rx ry rz
  end
  begin
    id 12
    name lForeArm
    direction 0.000163956 -0.0977586 -0.99521
    length 8.6068
    axis 0.134773 84.3899 -89.8525 xyz
    dof rx ry rz
  end
  begin
    id 13
    name lHand
    direction -0.0190533 -0.1444 -0.989336
    length 7.61479
    axis -7.3729 81.6249 -97.517 xyz
    dof rx ry rz
  end
  begin
    id 14
    name rCollarDummy
    direction 0.994871 0.0442627 0.0909555
    length 9.60761
    axis 2.65071e-005 8.63688e-006 2.59796 xyz
  end
  begin
    id 15
    name rCollar
    direction 0.0334251 -4.74072e-007 0.999441
    length 6.97058
    axis -178.152 -88.0845 -0.000674207 xyz
    dof rx ry rz
  end
  begin
    id 16
    name rShldr
    direction -0.026922 0.0719509 0.997045
    length 9.60913
    axis 71.2822 -85.594 110.514 xyz
    dof rx ry rz
  end
  begin
    id 17
    name rForeArm
    direction 0.00134679 -0.118986 0.992895
    length 8.57176
    axis -88.7923 -83.1659 -89.3516 xyz
    dof rx ry rz
  end
  begin
    id 18
    name rHand
    direction -0.0185183 -0.0768601 0.99687
    length 7.69687
    axis -74.5596 -85.4655 -103.546 xyz
    dof rx ry rz
  end
  begin
    id 19
    name lThighDummy
    direction -0.236086 -0.0385456 -0.970967
    length 4.99155
    axis 0 0 0 xyz
  end
  begin
    id 20
    name lThigh
    direction -0.993968 0.0148998 -0.108653
    length 13.572
    axis -91.4001 6.23768 179.141 xyz
    dof rx ry rz
  end
  begin
    id 21
    name lShin
    direction -0.992341 0.0904576 -0.0841193
    length 18.5862
    axis -91.4558 4.82538 174.792 xyz
    dof rx ry rz
  end
  begin
    id 22
    name lFoot
    direction 0.0209381 -0.999771 -0.00453005
    length 8.44474
    axis 4.86759 0.259522 -88.8001 xyz
    dof rx ry rz
  end
  begin
    id 23
    name rThighDummy
    direction -0.236086 -0.0385456 0.970967
    length 4.99155
    axis 0 0 0 xyz
  end
  begin
    id 24
    name rThigh
    direction -0.993968 0.0148995 0.108653
    length 13.5721
    axis -89.7059 -6.2377 179.141 xyz
    dof rx ry rz
  end
  begin
    id 25
    name rShin
    direction -0.9925 0.0899962 0.0827255
    length 18.6716
    axis -89.2745 -4.74775 174.819 xyz
    dof rx ry rz
  end
  begin
    id 26
    name rFoot
    direction 0.0301721 -0.999545 9.70865e-005
    length 8.45013
    axis -2.50066e-005 -0.00555246 -88.271 xyz
    dof rx ry rz
  end
:hierarchy
  begin
    root abdomenDummy lThighDummy rThighDummy
    abdomenDummy abdomen
    abdomen chest
    chest neckDummyDummy lCollarDummy rCollarDummy
    neckDummyDummy neckDummy
    neckDummy neck
    neck head
    head figureHair
    lCollarDummy lCollar
    lCollar lShldr
    lShldr lForeArm
    lForeArm lHand
    rCollarDummy rCollar
    rCollar rShldr
    rShldr rForeArm
    rForeArm rHand
    lThighDummy lThigh
    lThigh lShin
    lShin lFoot
    rThighDummy rThigh
    rThigh rShin
    rShin rFoot
  end

:SAMPLES-PER-SECOND 25
:FULLY-SPECIFIED
:DEGREES
1224
root  2.98674 36.6452 -5.45382 173.933 -6.0773 92.578
abdomen  4.47274 7.3742 7.63413
chest  3.20676 3.02827 -20.7548
neckDummy  9.09964e-021 0 8.72668e-016
neck  4.15188 -7.89993 -24.1405
head  4.73498 0.435082 -7.05749
figureHair  0 1.51661e-021 -9.5315e-016
lCollar  -5.15695e-016 -6.42944e-016 -7.59357e-014
lShldr  63.6525 31.8695 -38.4324
lForeArm  -112.134 -71.7282 172.233
lHand  0.254698 0.195082 5.2986
rCollar  1.7976e-016 -5.12864e-014 1.62755e-015
rShldr  -91.4154 35.5318 -38.7867
rForeArm  -41.1228 -0.422273 97.2401
rHand  -7.31118 -31.9866 28.4188
lThigh  -15.9575 -9.86028 13.1149
lShin  -7.76131 17.3932 -0.729511
lFoot  -2.67136 0.362512 2.75989
rThigh  2.92636 -2.13881 10.4018
rShin  9.06293 -0.303641 6.65445
rFoot  -10.481 0.69862 -3.29766
1225
root  2.70106 36.5367 -5.84444 173.252 -7.01654 91.6358
abdomen  5.18949 7.83264 8.71547
chest  3.72759 3.93442 -21.2713
neckDummy  9.09964e-021 0 8.72668e-016
neck  4.3398 -10.2784 -24.4876
head  5.04606 -0.369387 -6.59924
figureHair  0 1.51661e-021 -9.5315e-016
lCollar  -5.15695e-016 -6.42944e-016 -7.59357e-014
lShldr  63.4444 31.3038 -38.1764
lForeArm  -112.307 -71.5196 172.31
lHand  0.254698 0.195082 5.2986
rCollar  1.7976e-016 -5.12864e-014 1.62755e-015
rShldr  -91.831 35.729 -38.5713
rForeArm  -40.2322 -0.411469 96.6921
rHand  -7.78076 -32.8215 29.2965
lThigh  -16.9014 -8.93428 14.6049
lShin  -6.92861 19.0748 0.175165
lFoot  -3.44461 0.500588 3.83895
rThigh  2.53607 -0.567696 11.6294
rShin  8.81239 -0.166626 6.97508
rFoot  -10.6676 0.801848 -2.8173
1226
root  2.34657 36.423 -6.18102 172.604 -8.07907 90.2564
abdomen  5.81913 7.64436 10.0519
chest  4.22328 4.87883 -22.1932
neckDummy  9.09964e-021 0 8.72668e-016
neck  4.61885 -11.2793 -25.3177
head  5.29376 -1.7643 -6.1797
figureHair  0 1.51661e-021 -9.5315e-016
lCollar  -5.15695e-016 -6.42944e-016 -7.59357e-014
lShldr  62.8576 30.7016 -38.1569
lForeArm  -112.556 -71.3296 172.379
lHand  0.254698 0.195082 5.2986
rCollar  1.7976e-016 -5.12864e-014 1.62755e-015
rShldr  -91.9906 36.0406 -38.084
rForeArm  -39.0876 -0.402423 96.2309
rHand  -8.22355 -33.6464 30.0565
lThigh  -17.5206 -7.35152 16.0359
lShin  -6.22109 20.62 1.00493
lFoot  -4.00363 0.623086 4.99846
rThigh  2.17601 1.45382 12.8789
rShin  8.53898 0.153952 7.13801
rFoot  -10.8724 0.92616 -2.23984
1227
root  1.9319 36.3115 -6.45103 172.103 -9.17372 88.464
abdomen  6.30842 7.02523 11.4906
chest  4.63033 5.67532 -23.4164
neckDummy  9.09964e-021 0 8.72668e-016
neck  4.89222 -11.415 -26.059
head  5.49103 -3.04045 -6.23965
figureHair  0 1.51661e-021 -9.5315e-016
lCollar  -5.15695e-016 -6.42944e-016 -7.59357e-014
lShldr  61.9648 30.2982 -38.4596
lForeArm  -112.62 -71.2333 172.414
lHand  0.254698 0.195082 5.2986
rCollar  1.7976e-016 -5.12864e-014 1.62755e-015
rShldr  -91.8124 36.3345 -37.4587
rForeArm  -38.3118 -0.397727 95.9758
rHand  -8.36358 -33.8748 30.3095
lThigh  -17.5521 -5.13022 17.2468
lShin  -5.84427 21.8585 1.65015
lFoot  -4.36054 0.723614 6.14964
rThigh  1.97051 3.86235 14.0121
rShin  8.27872 0.686497 7.18558
rFoot  -11.2763 1.08604 -1.60012
1228
root  1.47999 36.2188 -6.63963 171.951 -10.0843 86.4709
abdomen  6.57138 6.3446 12.9772
chest  4.831 6.22794 -24.6681
neckDummy  9.09964e-021 0 8.72668e-016
neck  5.19158 -11.1208 -26.7353
head  5.71797 -3.97133 -6.56442
figureHair  0 1.51661e-021 -9.5315e-016
lCollar  -5.15695e-016 -6.42944e-016 -7.59357e-014
lShldr  60.867 30.1675 -39.0193
lForeArm  -112.767 -71.1044 172.459
lHand  0.254698 0.195082 5.2986
rCollar  1.7976e-016 -5.12864e-014 1.62755e-015
rShldr  -91.6691 36.5957 -36.9288
rForeArm  -37.7709 -0.394148 95.7766
rHand  -8.62535 -34.0957 30.9232
lThigh  -16.9804 -2.61893 18.0071
lShin  -5.88424 22.6743 2.07259
lFoot  -4.18647 0.730413 7.10765
rThigh  2.06205 6.37446 14.8119
rShin  8.09827 1.44165 7.18946
rFoot  -11.6875 1.25579 -0.940051
1229
root  1.02259 36.1574 -6.72294 172.193 -10.6676 84.5541
abdomen  6.56782 5.73403 14.5397
chest  4.7854 6.57082 -25.7269
neckDummy  9.09964e-021 0 8.72668e-016
neck  5.53129 -10.4207 -27.624
head  5.95765 -4.76021 -6.66642
figureHair  0 1.51661e-021 -9.5315e-016
lCollar  -5.15695e-016 -6.42944e-016 -7.59357e-014
lShldr  59.8674 30.1697 -39.5593
lForeArm  -112.961 -70.9668 172.507
lHand  0.254698 0.195082 5.2986
rCollar  1.7976e-016 -5.12864e-014 1.62755e-015
rShldr  -91.7411 36.9482 -36.8376
rForeArm  -37.0914 -0.389536 95.5336
rHand  -9.10475 -34.7505 31.8419
lThigh  -16.0986 -0.272371 18.2565
lShin  -6.17058 23.1442 2.30323
lFoot  -3.49888 0.630503 7.76975
rThigh  2.4331 8.36686 15.182
rShin  8.08507 2.78382 7.13666
rFoot  -11.7531 1.41059 -0.167482
